# xmcd CD database file
# Copyright (C) 1995-1998 Ti Kan
#
# Track frame offsets:
#	150
#	18488
#	37172
#	54462
#	76569
#	91585
#	109645
#	132138
#	149450
#	166372
#	187364
#	206200
#	219103
#	238232
#	255335
#	272263
#	285659
#	302292
#
# Disc length: 4150 seconds
#
# Revision: 1
# Processed by: cddbd v1.4b41PL1 Copyright (c) Steve Scherf et al.
# Submitted via: CDex 1.30
#
DISCID=f2103412
DTITLE=Jack Myrick 4 - Old Countrys Greatest Hits Vol. 4
DYEAR=2000
DGENRE=Country
TTITLE0=Take My Ring Off Of Your Finger
TTITLE1=Smokin' Cigarettes And Drinkin' Coffee Blues
TTITLE2=Just Between You And Me
TTITLE3=I Thought I Heard You Calling My Name
TTITLE4=My Baby Don't Dance To Nothin' But Ernest Tubb
TTITLE5=You Nearly Lose Your Mind
TTITLE6=I'll Sail My Ship Alone
TTITLE7=We Live In Two Different Worlds
TTITLE8=Moanin' The Blues
TTITLE9=She's My Little Filipino Baby
TTITLE10=Let's Say Goodbye Like We Said Hello
TTITLE11=Are You Teasin' Me
TTITLE12=Margaritaville
TTITLE13=Only Daddy That'll Walk The Line
TTITLE14=Pretty Words
TTITLE15=Hey Porter
TTITLE16=The Gold Rush Is Over
TTITLE17=Steel Guitar Rag (instrumental)
EXTD=\n\n\n\nYEAR: 2000  ID3G:   2
EXTT0=
EXTT1=
EXTT2=
EXTT3=
EXTT4=
EXTT5=
EXTT6=
EXTT7=
EXTT8=
EXTT9=
EXTT10=
EXTT11=
EXTT12=
EXTT13=
EXTT14=
EXTT15=
EXTT16=
EXTT17=
PLAYORDER=
